<svg xmlns="http://www.w3.org/2000/svg" id="Capa_1" data-name="Capa 1" viewBox="0 0 1238.06 1207.14" width="1238.06px" height="1207.14px">
  <defs>
    <style>.cls-1, .cls-2 { fill: #39A900; }
.cls-2 { fill-rule: evenodd; }
</style>
  </defs>
  <path class="cls-2" d="M123.44,432.09v.51c-.47,2.23-.65,3.87-.65,4.9,0,6.92,3.93,12.06,11.75,15.43,7.94,3.37,20.11,5.04,36.6,5.04,12.56,0,22.37-1.39,29.51-4.15,7.17-2.75,10.73-6.56,10.73-11.38,0-7.32-14.14-13.21-42.29-17.82-3.3-.54-5.78-.94-7.36-1.17-1.8-.35-4.47-.78-7.92-1.32-44.75-7.34-73.55-15.26-86.24-23.83-6.19-4.2-10.93-9.1-14.12-14.81-3.07-5.68-4.69-12.13-4.69-19.21,0-17.53,10.28-30.84,30.84-39.98,20.56-9.14,50.65-13.71,90.27-13.71s68.13,4.26,86.98,12.82c18.84,8.61,28.28,21.83,28.28,39.61v2.06h-74.12v-.8c0-6.17-3.72-10.74-11.22-13.89-7.5-3.16-18.49-4.78-32.97-4.78-11.23,0-19.93,1.11-25.96,3.37-6.13,2.25-9.17,5.46-9.17,9.6,0,7.42,16.18,13.68,48.49,18.92,6.2,.93,11.12,1.7,14.63,2.25,23.03,3.85,39.41,7.17,49.17,9.95,9.78,2.75,18.17,6.01,25.27,9.79,7.87,4.31,14.05,9.79,18.29,16.37,4.29,6.59,6.43,13.77,6.43,21.64,0,18.05-11.21,31.91-33.6,41.63-22.41,9.72-54.68,14.57-96.71,14.57s-71.69-4.69-90.29-14c-18.62-9.37-27.84-24.33-27.84-44.97v-2.64H123.44Zm203.06,58.63v-177.47h211.27v38.27h-131.93v28.25h122.01v37.78s-122.01,0-122.01,0v34.44h136.96v38.73s-216.3,0-216.3,0Zm249.42,0v-177.47h100.4l107.48,119.07v-119.07h76.22v177.47h-104.15l-103.97-119.48v119.48s-75.99,0-75.99,0Zm489.08-70.77l-37.97-64.51-40.15,64.51h78.12Zm-120.87,70.77h-79.57l122.83-177.47h88.02l117.16,177.47h-88.34l-17.9-32.03h-123.07l-19.12,32.03Z"/>
  <g>
    <path class="cls-2" d="M234.86,1116.4l-70.88-66.64,215.77-374.46c11.76-20.42-2.96-45.94-26.54-45.94H0v-93.65H568.5L234.86,1116.4Z"/>
    <path class="cls-2" d="M1003.2,1116.4l70.89-66.64-215.77-374.46c-11.76-20.42,2.96-45.94,26.53-45.94h353.22v-93.65s-568.51,0-568.51,0l333.64,580.7Z"/>
  </g>
  <path class="cls-2" d="M614.71,634.7c.51-.89,.78-1.34,.78-1.34l320.34,529.51-85.07,44.26-206.42-345.72c-12.16-20.37-41.65-20.41-53.76,.01-68.81,115.99-205.09,345.7-205.09,345.7l-83.27-41.18s295.37-502.17,312.49-531.26Z"/>
  <circle class="cls-1" cx="619.03" cy="132.13" r="132.13"/>
</svg>