<?xml version="1.0" encoding="UTF-8"?>
<svg id="Capa_2" data-name="Capa 2" xmlns="http://www.w3.org/2000/svg" viewBox="0 0 689.01 138.87">
  <defs>
    <style>
      .cls-1 {
        fill: #9bc123;
      }

      .cls-1, .cls-2, .cls-3 {
        stroke-width: 0px;
      }

      .cls-2 {
        fill: #6fc4dd;
      }

      .cls-3 {
        fill: #24325c;
      }
    </style>
  </defs>
  <g id="Capa_3" data-name="Capa 3">
    <g>
      <g>
        <path class="cls-3" d="M150.15,17.94v.27c0,8.09-7.14,14.31-15.15,13.22,0,0-109.67-15.37-125-17.71C3.15,12.66,0,9.46,0,6.61,0,4.12,3.2,1.37,11.87,1.37,21.77,1.37,132.03,0,132.03,0c9.98-.1,18.12,7.96,18.12,17.94Z"/>
        <path class="cls-1" d="M150.15,71.57h0c0,8.6-8.56,14.59-16.64,11.64l-72.26-26.4-19.54-7.14v18.17c0,5.02-5.49,8.11-9.78,5.5l-23.22-14.13C3.3,55.91,0,50.04,0,43.71v-12.81c0-7.32,8.35-7.56,12.67-6.47l29.04,6.85,19.54,4.6,74.58,17.59c8.39,1.98,14.32,9.47,14.32,18.09Z"/>
        <path class="cls-2" d="M150.15,130.65h0c0,6.4-7.01,10.34-12.48,7.01l-68.49-41.67c-4.93-3-7.93-8.34-7.93-14.11h0c0-4.99,5.18-8.3,9.71-6.19l62.72,29.14c10.05,4.67,16.47,14.74,16.47,25.82Z"/>
      </g>
      <g>
        <path class="cls-3" d="M210.14,75.59l-1.71,8.76h23.09l-2.15,10.99h-23.17l-1.86,9.5h27.25l-2.38,11.36h-41.65l10.39-51.97h40.69l-2.3,11.36h-26.21Z"/>
        <path class="cls-3" d="M311.6,64.23l-11.91,52.08h-14.28l8.63-35.03-19.39,35.03h-13.39l-3.32-34.85-7.26,34.85h-13.51l10.68-52.08h21.15l2.3,34.83,18.33-34.83h21.95Z"/>
        <path class="cls-3" d="M364.17,80.94c0,13.14-10.02,21.68-25.69,21.68h-10.39l-2.67,13.59h-14.7l10.4-51.97h21.98c13.51,0,21.09,6.16,21.09,16.71ZM349.32,81.61c0-3.97-2.69-5.79-7.23-5.79h-6.83l-2.69,13.81h7.75c5.72,0,9-2.83,9-8.01Z"/>
        <path class="cls-3" d="M407.03,97.58l6.61,18.63h-15.37l-6.82-16.1-7.08-.05-3.99,16.16h-14.7l10.4-51.97h22.2c13.29,0,21.51,6.18,20.94,16.56-.54,9.77-3.12,13.67-12.18,16.79ZM396.24,75.81h-7.09l-2.86,12.98h8.04c5.93,0,9.41-2.66,9.41-7.54,0-3.74-2.86-5.45-7.5-5.45Z"/>
        <path class="cls-3" d="M676.81,97.58l6.61,18.63h-15.37l-6.82-16.1-7.08-.05-3.99,16.16h-14.7l10.4-51.97h22.2c13.29,0,21.51,6.18,20.94,16.56-.54,9.77-3.12,13.67-12.18,16.79ZM666.02,75.81h-7.09l-2.86,12.98h8.04c5.93,0,9.41-2.66,9.41-7.54,0-3.74-2.86-5.45-7.5-5.45Z"/>
        <path class="cls-3" d="M443.63,75.59l-1.81,8.76h24.45l-2.28,10.99h-24.53l-1.96,9.5h28.85l-2.52,11.36h-44.1l11.01-51.97h43.08l-2.44,11.36h-27.75Z"/>
        <path class="cls-3" d="M610.17,75.59l-1.81,8.76h24.45l-2.28,10.99h-24.53l-1.96,9.5h28.85l-2.52,11.36h-44.1l11.01-51.97h43.08l-2.44,11.36h-27.75Z"/>
        <path class="cls-3" d="M530.34,64.23l-10.98,51.97h-17.89l-10.65-32.07-6.91,32.07h-14.36l11.56-51.97h16.63l11.38,34.65,6.86-34.65h14.36Z"/>
        <path class="cls-3" d="M538.85,64.23h20.86c14.96,0,24.08,8.39,24.08,21.83,0,18.41-12.35,30.15-29.98,30.15h-24.56l9.61-51.97ZM554.58,105.03c7.66,0,12.56-7.72,13.36-17.86.56-7.04-2.16-11.2-8.06-11.2h-6l-6.24,29.06h6.93Z"/>
      </g>
      <g>
        <path class="cls-2" d="M233.64,17.21h-20.15l-3.38,12.51h17.06l-1.21,4.58h-17.06l-4.41,17.09h-5.77l10.2-38.76h25.92l-1.21,4.58Z"/>
        <path class="cls-2" d="M272,17.08c1.38,1.74,2.34,3.86,2.88,6.38.54,2.52.61,5.37.21,8.56-.4,3.19-1.19,6.05-2.38,8.58-1.19,2.52-2.67,4.63-4.44,6.31-1.84,1.75-3.91,3.07-6.23,3.96-2.31.88-4.89,1.33-7.71,1.33s-5.21-.45-7.35-1.35c-2.14-.9-3.9-2.21-5.26-3.93-1.36-1.72-2.32-3.83-2.86-6.32-.54-2.5-.61-5.35-.21-8.56.4-3.16,1.17-5.99,2.33-8.5,1.16-2.51,2.66-4.65,4.49-6.44,1.76-1.7,3.84-3,6.25-3.9,2.41-.9,4.96-1.35,7.67-1.35s5.28.46,7.4,1.37c2.13.91,3.86,2.21,5.22,3.89ZM269.91,32.02c.64-5.03-.03-8.92-1.99-11.65-1.96-2.73-4.94-4.1-8.94-4.1s-7.37,1.37-10.02,4.1c-2.65,2.73-4.29,6.62-4.93,11.65-.64,5.08.04,8.98,2.04,11.67,2,2.7,4.98,4.05,8.92,4.05s7.25-1.35,9.93-4.05c2.68-2.7,4.34-6.59,4.98-11.67Z"/>
        <path class="cls-2" d="M410.74,17.08c1.38,1.74,2.34,3.86,2.88,6.38.54,2.52.61,5.37.21,8.56-.4,3.19-1.19,6.05-2.38,8.58-1.19,2.52-2.67,4.63-4.44,6.31-1.84,1.75-3.91,3.07-6.23,3.96-2.31.88-4.89,1.33-7.71,1.33s-5.21-.45-7.35-1.35c-2.14-.9-3.9-2.21-5.26-3.93-1.36-1.72-2.32-3.83-2.86-6.32-.54-2.5-.61-5.35-.21-8.56.4-3.16,1.17-5.99,2.33-8.5,1.16-2.51,2.66-4.65,4.49-6.44,1.76-1.7,3.84-3,6.25-3.9,2.41-.9,4.96-1.35,7.67-1.35s5.28.46,7.4,1.37c2.13.91,3.86,2.21,5.22,3.89ZM408.64,32.02c.64-5.03-.03-8.92-1.99-11.65-1.96-2.73-4.94-4.1-8.94-4.1s-7.37,1.37-10.02,4.1c-2.65,2.73-4.29,6.62-4.93,11.65-.64,5.08.04,8.98,2.04,11.67,2,2.7,4.98,4.05,8.92,4.05s7.25-1.35,9.93-4.05c2.68-2.7,4.34-6.59,4.98-11.67Z"/>
        <path class="cls-2" d="M313.89,51.38h-6.6l-9.75-34.67-9.27,34.67h-4.98l10.36-38.76h8.27l8.88,31.65,8.47-31.65h4.98l-10.36,38.76Z"/>
        <path class="cls-2" d="M367.05,32.04c-3.76,19.43-17.1,19.34-23.66,19.34h-12.44l8.09-38.76h9.48c4.67,0,22.17.54,18.52,19.42ZM361.79,31.96c.63-3.04.65-5.6.05-7.68-.6-2.08-1.81-3.72-3.61-4.92-1.31-.87-2.78-1.47-4.39-1.81-1.61-.34-3.59-.51-5.93-.51h-4.74l-6.25,29.91h4.74c2.43,0,4.59-.18,6.47-.55,1.89-.36,3.69-1.04,5.41-2.03,2.14-1.23,3.9-2.85,5.26-4.87,1.36-2.01,2.36-4.53,2.99-7.55Z"/>
      </g>
    </g>
  </g>
</svg>